<svg width="25" height="25" viewBox="0 0 25 25" fill="none" xmlns="http://www.w3.org/2000/svg">
<circle cx="12.5" cy="12.5" r="12.5" fill="#111213"/>
<g clip-path="url(#clip0_360_26)">
<circle cx="12.5" cy="12.5" r="12.5" fill="#111213"/>
<path d="M13 6.16667C16.2218 6.16667 18.8334 8.77825 18.8334 12C18.8334 15.2218 16.2218 17.8333 13 17.8333C9.77827 17.8333 7.16669 15.2218 7.16669 12C7.16669 8.77825 9.77827 6.16667 13 6.16667ZM13 7.33333C11.7623 7.33333 10.5754 7.825 9.70019 8.70017C8.82502 9.57534 8.33335 10.7623 8.33335 12C8.33335 13.2377 8.82502 14.4247 9.70019 15.2998C10.5754 16.175 11.7623 16.6667 13 16.6667C14.2377 16.6667 15.4247 16.175 16.2999 15.2998C17.175 14.4247 17.6667 13.2377 17.6667 12C17.6667 10.7623 17.175 9.57534 16.2999 8.70017C15.4247 7.825 14.2377 7.33333 13 7.33333V7.33333ZM15.2359 9.27992C15.3029 9.23298 15.3842 9.21117 15.4656 9.21832C15.547 9.22547 15.6233 9.26112 15.681 9.319C15.7386 9.3766 15.7739 9.45276 15.7806 9.53393C15.7874 9.61511 15.7651 9.69604 15.7178 9.76233C14.4461 11.5392 13.7461 12.4912 13.6189 12.6189C13.4547 12.7828 13.2321 12.8749 13 12.8749C12.768 12.8749 12.5454 12.7828 12.3811 12.6189C12.2172 12.4547 12.1251 12.2321 12.1251 12C12.1251 11.7679 12.2172 11.5453 12.3811 11.3811C12.5993 11.1635 13.5507 10.4629 15.2359 9.27992ZM16.2084 11.4167C16.3631 11.4167 16.5114 11.4781 16.6208 11.5875C16.7302 11.6969 16.7917 11.8453 16.7917 12C16.7917 12.1547 16.7302 12.3031 16.6208 12.4125C16.5114 12.5219 16.3631 12.5833 16.2084 12.5833C16.0536 12.5833 15.9053 12.5219 15.7959 12.4125C15.6865 12.3031 15.625 12.1547 15.625 12C15.625 11.8453 15.6865 11.6969 15.7959 11.5875C15.9053 11.4781 16.0536 11.4167 16.2084 11.4167ZM9.79169 11.4167C9.9464 11.4167 10.0948 11.4781 10.2042 11.5875C10.3136 11.6969 10.375 11.8453 10.375 12C10.375 12.1547 10.3136 12.3031 10.2042 12.4125C10.0948 12.5219 9.9464 12.5833 9.79169 12.5833C9.63698 12.5833 9.4886 12.5219 9.37921 12.4125C9.26981 12.3031 9.20835 12.1547 9.20835 12C9.20835 11.8453 9.26981 11.6969 9.37921 11.5875C9.4886 11.4781 9.63698 11.4167 9.79169 11.4167ZM11.1439 9.319C11.2532 9.42854 11.3146 9.57703 11.3145 9.73183C11.3144 9.88663 11.2528 10.035 11.1433 10.1444C11.0337 10.2538 10.8852 10.3152 10.7304 10.3151C10.5756 10.315 10.4272 10.2534 10.3179 10.1438C10.2637 10.0896 10.2207 10.0252 10.1915 9.95439C10.1622 9.88356 10.1471 9.80765 10.1472 9.73101C10.1473 9.65436 10.1624 9.57847 10.1918 9.50768C10.2212 9.43689 10.2642 9.37258 10.3184 9.31842C10.428 9.20904 10.5765 9.14765 10.7313 9.14776C10.8079 9.14781 10.8838 9.16296 10.9546 9.19235C11.0254 9.22173 11.0897 9.26477 11.1439 9.319V9.319ZM13 8.20833C13.1547 8.20833 13.3031 8.26979 13.4125 8.37919C13.5219 8.48859 13.5834 8.63696 13.5834 8.79167C13.5834 8.94638 13.5219 9.09475 13.4125 9.20415C13.3031 9.31354 13.1547 9.375 13 9.375C12.8453 9.375 12.6969 9.31354 12.5875 9.20415C12.4781 9.09475 12.4167 8.94638 12.4167 8.79167C12.4167 8.63696 12.4781 8.48859 12.5875 8.37919C12.6969 8.26979 12.8453 8.20833 13 8.20833V8.20833Z" fill="white"/>
</g>
<defs>
<clipPath id="clip0_360_26">
<rect width="14" height="14" fill="white" transform="translate(5 5)"/>
</clipPath>
</defs>
</svg>
