<svg width="50" height="50" viewBox="0 0 50 50" fill="none" xmlns="http://www.w3.org/2000/svg">
<g clip-path="url(#clip0_32_44)">
<path d="M12.3644 36.6568C12.4674 36.3329 12.6649 36.0473 12.9315 35.8365C13.1981 35.6258 13.5216 35.4996 13.8605 35.4741C16.5277 35.2684 19.1003 34.3946 21.3409 32.9332C28.8043 28.0864 30.8966 18.0774 26.0269 10.5787C25.3892 9.59952 24.6743 8.71534 23.8821 7.9262C23.6399 7.68466 23.4739 7.37741 23.4046 7.04248C23.3353 6.70755 23.3658 6.35965 23.4923 6.04186C23.622 5.70828 23.8589 5.42723 24.1656 5.24283C24.4724 5.05842 24.8317 4.9811 25.1871 5.023C27.9207 5.31764 30.5541 6.21851 32.8954 7.65997C35.2366 9.10143 37.2267 11.0471 38.7206 13.3553C44.2774 21.9119 41.8847 33.3193 33.3911 38.8351C26.9987 42.9864 18.9677 42.6232 13.0157 38.5455C12.7168 38.3441 12.4915 38.0508 12.374 37.7101C12.2565 37.3693 12.2532 36.9996 12.3644 36.6568Z" fill="white"/>
<g clip-path="url(#clip1_32_44)">
<path d="M15.6571 20.247C15.7671 19.917 16.2331 19.917 16.3431 20.247L16.9881 22.184C17.13 22.6098 17.3692 22.9966 17.6867 23.3139C18.0042 23.6312 18.3912 23.8702 18.8171 24.012L20.7531 24.657C21.0831 24.767 21.0831 25.233 20.7531 25.343L18.8161 25.988C18.3903 26.1299 18.0034 26.3691 17.6861 26.6866C17.3688 27.0041 17.1298 27.3911 16.9881 27.817L16.3431 29.753C16.3193 29.8252 16.2734 29.8882 16.2118 29.9328C16.1502 29.9774 16.0761 30.0014 16.0001 30.0014C15.924 30.0014 15.8499 29.9774 15.7883 29.9328C15.7267 29.8882 15.6808 29.8252 15.6571 29.753L15.0121 27.816C14.8702 27.3903 14.6311 27.0035 14.3138 26.6862C13.9966 26.3689 13.6097 26.1298 13.1841 25.988L11.2471 25.343C11.1748 25.3193 11.1119 25.2733 11.0673 25.2117C11.0226 25.1501 10.9986 25.076 10.9986 25C10.9986 24.9239 11.0226 24.8498 11.0673 24.7882C11.1119 24.7266 11.1748 24.6807 11.2471 24.657L13.1841 24.012C13.6097 23.8701 13.9966 23.631 14.3138 23.3138C14.6311 22.9965 14.8702 22.6097 15.0121 22.184L15.6571 20.247ZM11.7941 15.148C11.8084 15.1047 11.836 15.067 11.873 15.0403C11.91 15.0136 11.9544 14.9992 12.0001 14.9992C12.0457 14.9992 12.0901 15.0136 12.1271 15.0403C12.1641 15.067 12.1917 15.1047 12.2061 15.148L12.5931 16.31C12.7661 16.828 13.1721 17.234 13.6901 17.407L14.8521 17.794C14.8954 17.8083 14.933 17.8359 14.9598 17.8729C14.9865 17.9099 15.0008 17.9543 15.0008 18C15.0008 18.0456 14.9865 18.09 14.9598 18.127C14.933 18.164 14.8954 18.1916 14.8521 18.206L13.6901 18.593C13.4344 18.6778 13.2021 18.8212 13.0117 19.0116C12.8212 19.2021 12.6779 19.4343 12.5931 19.69L12.2061 20.852C12.1917 20.8953 12.1641 20.933 12.1271 20.9597C12.0901 20.9864 12.0457 21.0008 12.0001 21.0008C11.9544 21.0008 11.91 20.9864 11.873 20.9597C11.836 20.933 11.8084 20.8953 11.7941 20.852L11.4071 19.69C11.3222 19.4343 11.1789 19.2021 10.9884 19.0116C10.798 18.8212 10.5657 18.6778 10.3101 18.593L9.14805 18.206C9.10475 18.1916 9.06706 18.164 9.04035 18.127C9.01364 18.09 8.99927 18.0456 8.99927 18C8.99927 17.9543 9.01364 17.9099 9.04035 17.8729C9.06706 17.8359 9.10475 17.8083 9.14805 17.794L10.3101 17.407C10.5657 17.3221 10.798 17.1788 10.9884 16.9883C11.1789 16.7979 11.3222 16.5656 11.4071 16.31L11.7941 15.148ZM18.8631 14.099C18.8729 14.0705 18.8914 14.0458 18.916 14.0283C18.9405 14.0109 18.9699 14.0015 19.0001 14.0015C19.0302 14.0015 19.0596 14.0109 19.0841 14.0283C19.1087 14.0458 19.1272 14.0705 19.1371 14.099L19.3951 14.873C19.5101 15.219 19.7811 15.49 20.1271 15.605L20.9011 15.863C20.9295 15.8728 20.9542 15.8913 20.9717 15.9159C20.9892 15.9404 20.9986 15.9698 20.9986 16C20.9986 16.0301 20.9892 16.0595 20.9717 16.084C20.9542 16.1086 20.9295 16.1271 20.9011 16.137L20.1271 16.395C19.9567 16.452 19.8019 16.5478 19.6749 16.6748C19.5478 16.8018 19.4521 16.9566 19.3951 17.127L19.1371 17.901C19.1272 17.9294 19.1087 17.9541 19.0841 17.9716C19.0596 17.9891 19.0302 17.9985 19.0001 17.9985C18.9699 17.9985 18.9405 17.9891 18.916 17.9716C18.8914 17.9541 18.8729 17.9294 18.8631 17.901L18.6051 17.127C18.5481 16.9566 18.4523 16.8018 18.3252 16.6748C18.1982 16.5478 18.0434 16.452 17.8731 16.395L17.1001 16.137C17.0716 16.1271 17.0469 16.1086 17.0294 16.084C17.0119 16.0595 17.0026 16.0301 17.0026 16C17.0026 15.9698 17.0119 15.9404 17.0294 15.9159C17.0469 15.8913 17.0716 15.8728 17.1001 15.863L17.8741 15.605C18.2201 15.49 18.4911 15.219 18.6061 14.873L18.8631 14.099Z" fill="white"/>
</g>
</g>
<defs>
<clipPath id="clip0_32_44">
<rect width="35.4104" height="35.4104" fill="white" transform="translate(19.915 49.9214) rotate(-123)"/>
</clipPath>
<clipPath id="clip1_32_44">
<rect width="16" height="16" fill="white" transform="translate(8 14)"/>
</clipPath>
</defs>
</svg>
