<svg width="17" height="15" viewBox="0 0 17 15" fill="none" xmlns="http://www.w3.org/2000/svg">
<path d="M11.75 2.62477C11.1166 2.62466 10.5085 2.8732 10.0566 3.31691C9.6046 3.76061 9.34488 4.36402 9.33331 4.99727L9.30998 6.30977C9.30861 6.38024 9.29236 6.44962 9.26229 6.51337C9.23223 6.57712 9.18902 6.63379 9.13551 6.67967C9.082 6.72554 9.0194 6.75959 8.95181 6.77957C8.88421 6.79955 8.81316 6.80501 8.74331 6.7956L7.44248 6.61894C5.73081 6.3856 4.09081 5.59727 2.51748 4.28644C2.01914 7.04477 2.99248 8.9556 5.33664 10.4298L6.79248 11.3448C6.86165 11.3882 6.91911 11.448 6.95985 11.5188C7.00058 11.5896 7.02334 11.6694 7.02614 11.751C7.02893 11.8327 7.01168 11.9137 6.97589 11.9872C6.94009 12.0606 6.88685 12.1242 6.82081 12.1723L5.49414 13.1414C6.28331 13.1906 7.03248 13.1556 7.65414 13.0323C11.5858 12.2473 14.2 9.28894 14.2 4.40894C14.2 4.0106 13.3566 2.62477 11.75 2.62477ZM7.66664 4.96644C7.68119 4.16314 7.93238 3.38199 8.38877 2.72079C8.84517 2.05958 9.48648 1.5477 10.2324 1.24924C10.9783 0.950782 11.7957 0.879003 12.5823 1.04289C13.3688 1.20678 14.0895 1.59906 14.6541 2.1706C15.2466 2.16644 15.7508 2.31644 16.8783 1.6331C16.5991 2.99977 16.4616 3.5931 15.8666 4.40894C15.8666 10.7773 11.9525 13.8739 7.98081 14.6664C5.25748 15.2098 1.29748 14.3173 0.162476 13.1323C0.740809 13.0873 3.09081 12.8348 4.44914 11.8406C3.29998 11.0831 -1.27419 8.39144 1.73164 1.15477C3.14248 2.80227 4.57331 3.92394 6.02331 4.51894C6.98831 4.91477 7.22498 4.90644 7.66748 4.96727L7.66664 4.96644Z" fill="#BABEC4"/>
</svg>
